<?xml version="1.0" encoding="iso-8859-1"?>
<!-- Generator: Adobe Illustrator 19.0.0, SVG Export Plug-In . SVG Version: 6.00 Build 0)  -->
<svg version="1.1" id="Capa_1" xmlns="http://www.w3.org/2000/svg" xmlns:xlink="http://www.w3.org/1999/xlink" x="0px" y="0px"
	 viewBox="0 0 512 512" style="enable-background:new 0 0 512 512;" xml:space="preserve">
<path style="fill:#FFCD00;" d="M512,182.927v146.166c0,0.942-0.775,1.686-1.707,1.675c-0.01,0-0.01,0-0.021,0
	c-26.324,0-47.902,21.311-47.902,47.891v0.251c0,0.932-0.743,1.686-1.675,1.686H51.305c-0.932,0-1.675-0.754-1.675-1.686v-0.251
	c0-26.448-21.443-47.891-47.902-47.891c-0.01,0-0.01,0-0.021,0C0.775,330.779,0,330.036,0,329.094V182.927
	c0-0.942,0.775-1.686,1.707-1.686c0.01,0,0.01,0,0.021,0c7.392,0,14.386-1.675,20.637-4.659
	c16.124-7.717,27.265-24.176,27.265-43.243v-0.241c0-0.932,0.743-1.696,1.675-1.696h409.391c0.932,0,1.675,0.764,1.675,1.696v0.241
	c0,26.459,21.443,47.902,47.902,47.902c0.01,0,0.01,0,0.021,0C511.225,181.242,512,181.985,512,182.927z"/>
<path style="fill:#FFDA44;" d="M512,182.927v146.166c0,0.942-0.775,1.686-1.707,1.675c-0.01,0-0.01,0-0.021,0
	c-5.968,0-11.685,1.089-16.952,3.089c-13.297,5.026-23.768,15.81-28.385,29.296H73.669c-0.932,0-1.675-0.764-1.675-1.696v-0.241
	c0-26.448-21.443-47.891-47.902-47.891c-0.01,0-0.01,0-0.021,0c-0.932,0-1.707-0.743-1.707-1.686V176.582
	c16.124-7.717,27.265-24.176,27.265-43.243v-0.241c0-0.932,0.743-1.696,1.675-1.696h409.391c0.932,0,1.675,0.764,1.675,1.696v0.241
	c0,26.459,21.443,47.902,47.902,47.902c0.01,0,0.01,0,0.021,0C511.225,181.242,512,181.985,512,182.927z"/>
<path style="fill:#EE8700;" d="M437.409,209.449v93.113c0,3.371-0.44,6.638-1.277,9.758c-4.335,16.355-19.297,28.49-36.971,28.49
	H112.839c-21.045,0-38.248-17.213-38.248-38.248v-93.113c0-21.035,17.203-38.248,38.248-38.248h286.322
	C420.206,171.201,437.409,188.414,437.409,209.449z"/>
<path style="fill:#FF9811;" d="M437.409,209.449v93.113c0,3.371-0.44,6.638-1.277,9.758H157.568
	c-21.035,0-38.248-17.213-38.248-38.248v-93.113c0-3.371,0.44-6.638,1.277-9.758h278.564
	C420.206,171.201,437.409,188.414,437.409,209.449z"/>
<g>
	<path style="fill:#FFCD00;" d="M359.133,292.95H152.867c-4.338,0-7.853-3.515-7.853-7.853c0-4.338,3.515-7.853,7.853-7.853h206.266
		c4.338,0,7.853,3.515,7.853,7.853C366.986,289.435,363.471,292.95,359.133,292.95z"/>
	<path style="fill:#FFCD00;" d="M345.521,320.173H166.479c-4.338,0-7.853-3.515-7.853-7.853c0-4.338,3.515-7.853,7.853-7.853
		h179.043c4.338,0,7.853,3.515,7.853,7.853C353.374,316.658,349.859,320.173,345.521,320.173z"/>
</g>
<path style="fill:#FFDA44;" d="M201.052,224.872l-7.392,7.214c-1.55,1.497-2.251,3.665-1.885,5.79l1.749,10.188
	c0.911,5.35-4.701,9.434-9.507,6.9l-9.151-4.806c-1.822-0.963-3.968-1.005-5.822-0.136c-0.094,0.042-0.188,0.094-0.272,0.136
	l-9.141,4.806c-4.806,2.534-10.418-1.55-9.507-6.9l1.749-10.188c0.366-2.125-0.335-4.293-1.885-5.79l-7.403-7.214
	c-3.885-3.79-1.738-10.397,3.633-11.172l10.23-1.487c2.136-0.314,3.979-1.654,4.932-3.581l4.576-9.266
	c2.398-4.869,9.34-4.869,11.737,0l4,8.104l0.576,1.162c0.953,1.927,2.796,3.267,4.932,3.581l10.23,1.487
	C202.8,214.475,204.947,221.081,201.052,224.872z"/>
<path style="fill:#FFCD00;" d="M201.052,224.872l-7.392,7.214c-1.55,1.497-2.251,3.665-1.885,5.79l1.749,10.188
	c0.911,5.35-4.701,9.434-9.507,6.9l-9.151-4.806c-1.822-0.963-3.968-1.005-5.822-0.136c-1.225-3.79-1.885-7.842-1.885-12.041
	c0-12.313,5.664-23.307,14.533-30.511l0.576,1.162c0.953,1.927,2.796,3.267,4.932,3.581l10.23,1.487
	C202.8,214.475,204.947,221.081,201.052,224.872z"/>
<path style="fill:#FFDA44;" d="M285.229,224.872l-7.392,7.214c-1.55,1.497-2.251,3.665-1.885,5.79l1.749,10.188
	c0.911,5.35-4.701,9.434-9.507,6.9l-9.151-4.806c-1.822-0.963-3.968-1.005-5.822-0.136c-0.094,0.042-0.188,0.094-0.272,0.136
	l-9.141,4.806c-4.806,2.534-10.418-1.55-9.507-6.9l1.749-10.188c0.366-2.125-0.335-4.293-1.885-5.79l-7.403-7.214
	c-3.885-3.79-1.738-10.397,3.633-11.172l10.23-1.487c2.136-0.314,3.979-1.654,4.932-3.581l4.576-9.266
	c2.398-4.869,9.34-4.869,11.737,0l4,8.104l0.576,1.162c0.953,1.927,2.796,3.267,4.932,3.581l10.23,1.487
	C286.978,214.475,289.124,221.081,285.229,224.872z"/>
<path style="fill:#FFCD00;" d="M285.229,224.872l-7.392,7.214c-1.55,1.497-2.251,3.665-1.885,5.79l1.749,10.188
	c0.911,5.35-4.701,9.434-9.507,6.9l-9.151-4.806c-1.822-0.963-3.968-1.005-5.822-0.136c-1.225-3.79-1.885-7.842-1.885-12.041
	c0-12.313,5.664-23.307,14.533-30.511l0.576,1.162c0.953,1.927,2.796,3.267,4.932,3.581l10.23,1.487
	C286.978,214.475,289.124,221.081,285.229,224.872z"/>
<path style="fill:#FFDA44;" d="M369.407,224.872l-7.392,7.214c-1.55,1.497-2.251,3.665-1.885,5.79l1.749,10.188
	c0.911,5.35-4.701,9.434-9.507,6.9l-9.151-4.806c-1.822-0.963-3.968-1.005-5.822-0.136c-0.094,0.042-0.188,0.094-0.272,0.136
	l-9.141,4.806c-4.806,2.534-10.418-1.55-9.507-6.9l1.749-10.188c0.366-2.125-0.335-4.293-1.885-5.79l-7.403-7.214
	c-3.884-3.79-1.738-10.397,3.633-11.172l10.23-1.487c2.136-0.314,3.979-1.654,4.932-3.581l4.576-9.266
	c2.398-4.869,9.34-4.869,11.737,0l4,8.104l0.576,1.162c0.953,1.927,2.796,3.267,4.932,3.581l10.23,1.487
	C371.156,214.475,373.302,221.081,369.407,224.872z"/>
<path style="fill:#FFCD00;" d="M369.407,224.872l-7.392,7.214c-1.55,1.497-2.251,3.665-1.885,5.79l1.749,10.188
	c0.911,5.35-4.701,9.434-9.507,6.9l-9.151-4.806c-1.822-0.963-3.968-1.005-5.822-0.136c-1.225-3.79-1.885-7.842-1.885-12.041
	c0-12.313,5.664-23.307,14.533-30.511l0.576,1.162c0.953,1.927,2.796,3.267,4.932,3.581l10.23,1.487
	C371.156,214.475,373.302,221.081,369.407,224.872z"/>
<g>
</g>
<g>
</g>
<g>
</g>
<g>
</g>
<g>
</g>
<g>
</g>
<g>
</g>
<g>
</g>
<g>
</g>
<g>
</g>
<g>
</g>
<g>
</g>
<g>
</g>
<g>
</g>
<g>
</g>
</svg>
