<svg height="512pt" viewBox="0 -11 512 512" width="512pt" xmlns="http://www.w3.org/2000/svg"><g fill="#021d3d"><path d="m496.820312 288.46875h-65.644531c-8.382812 0-15.179687-6.792969-15.179687-15.175781 0-8.382813 6.796875-15.179688 15.179687-15.179688h65.644531c8.382813 0 15.179688 6.796875 15.179688 15.179688 0 8.382812-6.796875 15.175781-15.179688 15.175781zm0 0"/><path d="m462.761719 426.355469c-2.691407 0-5.417969-.714844-7.886719-2.21875l-56.054688-34.164063c-7.15625-4.363281-9.421874-13.703125-5.0625-20.859375 4.363282-7.160156 13.703126-9.425781 20.859376-5.0625l56.058593 34.164063c7.15625 4.363281 9.421875 13.703125 5.058594 20.859375-2.859375 4.691406-7.855469 7.28125-12.972656 7.28125zm0 0"/><path d="m406.734375 184.753906c-5.121094 0-10.117187-2.589844-12.976563-7.277344-4.363281-7.160156-2.097656-16.5 5.0625-20.859374l56.054688-34.167969c7.160156-4.363281 16.496094-2.097657 20.859375 5.0625 4.363281 7.15625 2.097656 16.496093-5.0625 20.859375l-56.054687 34.164062c-2.464844 1.503906-5.191407 2.21875-7.882813 2.21875zm0 0"/></g><path d="m80.824219 288.46875h-65.644531c-8.382813 0-15.179688-6.792969-15.179688-15.175781 0-8.382813 6.796875-15.179688 15.179688-15.179688h65.644531c8.382812 0 15.179687 6.796875 15.179687 15.179688 0 8.382812-6.796875 15.175781-15.179687 15.175781zm0 0" fill="#1e4a70"/><path d="m105.265625 184.753906c-2.691406 0-5.417969-.714844-7.882813-2.21875l-56.054687-34.164062c-7.160156-4.363282-9.425781-13.703125-5.0625-20.859375 4.363281-7.160157 13.699219-9.425781 20.859375-5.0625l56.054688 34.167969c7.160156 4.359374 9.425781 13.699218 5.0625 20.859374-2.859376 4.6875-7.855469 7.277344-12.976563 7.277344zm0 0" fill="#1e4a70"/><path d="m49.238281 426.355469c-5.121093 0-10.113281-2.589844-12.972656-7.28125-4.363281-7.15625-2.097656-16.496094 5.058594-20.859375l56.058593-34.164063c7.15625-4.363281 16.496094-2.097656 20.859376 5.0625 4.363281 7.15625 2.09375 16.496094-5.0625 20.859375l-56.054688 34.164063c-2.46875 1.503906-5.195312 2.21875-7.886719 2.21875zm0 0" fill="#1e4a70"/><path d="m214.042969 88.414062c-8.382813 0-15.175781-6.792968-15.175781-15.175781v-25.664062c0-9.492188-7.722657-17.21875-17.21875-17.21875h-16.277344c-8.382813 0-15.175782-6.796875-15.175782-15.175781 0-8.382813 6.792969-15.179688 15.175782-15.179688h16.277344c26.234374 0 47.574218 21.34375 47.574218 47.574219v25.664062c0 8.382813-6.796875 15.175781-15.179687 15.175781zm0 0" fill="#021d3d"/><path d="m297.957031 88.414062c-8.382812 0-15.179687-6.792968-15.179687-15.175781v-25.664062c0-26.230469 21.339844-47.574219 47.574218-47.574219h16.277344c8.382813 0 15.175782 6.796875 15.175782 15.179688 0 8.378906-6.792969 15.175781-15.175782 15.175781h-16.277344c-9.496093 0-17.21875 7.726562-17.21875 17.21875v25.664062c0 8.382813-6.792968 15.175781-15.175781 15.175781zm0 0" fill="#001024"/><path d="m418.320312 213.714844h-324.652343c-4.914063 0-9.527344-2.382813-12.375-6.390625-2.84375-4.007813-3.574219-9.144531-1.957031-13.789063 13.796874-39.539062 37.367187-73.328125 68.164062-97.710937 31.917969-25.277344 69.4375-38.636719 108.5-38.636719 39.058594 0 76.578125 13.359375 108.492188 38.636719 30.792968 24.382812 54.363281 58.171875 68.160156 97.710937 1.621094 4.640625.890625 9.78125-1.957032 13.789063-2.84375 4.007812-7.457031 6.390625-12.375 6.390625zm0 0" fill="#1e4a70"/><path d="m418.320312 213.714844c4.917969 0 9.53125-2.382813 12.375-6.390625 2.847657-4.007813 3.578126-9.144531 1.957032-13.789063-13.796875-39.539062-37.367188-73.328125-68.160156-97.710937-31.914063-25.277344-69.433594-38.636719-108.492188-38.636719v156.527344zm0 0" fill="#021d3d"/><path d="m256 489.394531c-51.160156 0-99.132812-22.75-135.078125-64.0625-35.429687-40.710937-54.9375-94.707031-54.9375-152.039062 0-31.277344 5.785156-61.617188 17.175781-89.933594h345.671875c11.390625 28.316406 17.175781 58.660156 17.175781 89.933594 0 57.332031-19.511718 111.328125-54.9375 152.039062-35.945312 41.3125-83.914062 64.0625-135.070312 64.0625zm0 0" fill="#e6e6e6"/><path d="m256 489.394531c-51.160156 0-99.132812-22.75-135.078125-64.0625-35.429687-40.710937-54.9375-94.707031-54.9375-152.039062 0-31.277344 5.785156-61.617188 17.175781-89.933594h345.671875c11.390625 28.316406 17.175781 58.660156 17.175781 89.933594 0 57.332031-19.511718 111.328125-54.9375 152.039062-35.945312 41.3125-83.914062 64.0625-135.070312 64.0625zm0 0" fill="#ff683b"/><path d="m256 183.359375v306.035156c51.15625 0 99.125-22.75 135.070312-64.0625 35.425782-40.710937 54.9375-94.707031 54.9375-152.039062 0-31.273438-5.785156-61.617188-17.175781-89.933594zm0 0" fill="#f92814"/><path d="m195.0625 279.128906c7.9375 0 15.542969-6.980468 15.175781-15.175781-.367187-8.222656-6.667969-15.179687-15.175781-15.179687-7.941406 0-15.546875 6.980468-15.179688 15.179687.371094 8.222656 6.671876 15.175781 15.179688 15.175781zm0 0" fill="#021d3d"/><path d="m146.390625 332.28125c7.9375 0 15.542969-6.980469 15.175781-15.179688-.367187-8.222656-6.667968-15.175781-15.175781-15.175781-7.941406 0-15.546875 6.980469-15.179687 15.175781.367187 8.222657 6.667968 15.179688 15.179687 15.179688zm0 0" fill="#021d3d"/><path d="m195.0625 385.429688c7.9375 0 15.542969-6.980469 15.175781-15.175782-.367187-8.222656-6.667969-15.179687-15.175781-15.179687-7.941406 0-15.546875 6.980469-15.179688 15.179687.371094 8.222656 6.671876 15.175782 15.179688 15.175782zm0 0" fill="#021d3d"/><path d="m316.9375 385.429688c11.769531 0 15.726562-2.972657 15.179688-15.175782-.371094-8.222656-6.671876-15.179687-15.179688-15.179687-7.9375 0-15.542969 6.980469-15.175781 15.179687.367187 8.222656 6.667969 15.175782 15.175781 15.175782zm0 0" fill="#001024"/><path d="m365.609375 332.28125c7.941406 0 15.546875-6.980469 15.179687-15.179688-.367187-8.222656-6.667968-15.175781-15.179687-15.175781-7.9375 0-15.542969 6.980469-15.175781 15.175781.367187 8.222657 6.667968 15.179688 15.175781 15.179688zm0 0" fill="#001024"/><path d="m316.9375 279.128906c7.941406 0 15.546875-6.980468 15.179688-15.175781-.371094-8.222656-6.671876-15.179687-15.179688-15.179687-7.9375 0-15.542969 6.980468-15.175781 15.179687.367187 8.222656 6.667969 15.175781 15.175781 15.175781zm0 0" fill="#001024"/></svg>