<?xml version="1.0" encoding="iso-8859-1"?>
<!-- Generator: Adobe Illustrator 19.0.0, SVG Export Plug-In . SVG Version: 6.00 Build 0)  -->
<svg version="1.1" id="Layer_1" xmlns="http://www.w3.org/2000/svg" xmlns:xlink="http://www.w3.org/1999/xlink" x="0px" y="0px"
	 viewBox="0 0 481.882 481.882" style="enable-background:new 0 0 481.882 481.882;" xml:space="preserve">
<g>
	<path style="fill:#FF8080;" d="M256,45.176V15.059C256,6.746,249.254,0,240.941,0s-15.059,6.746-15.059,15.059v30.118
		c0,8.312,6.746,15.059,15.059,15.059S256,53.489,256,45.176"/>
	<path style="fill:#FF8080;" d="M60.235,210.824H30.118c-8.312,0-15.059,6.746-15.059,15.059s6.746,15.059,15.059,15.059h30.118
		c8.312,0,15.059-6.746,15.059-15.059S68.548,210.824,60.235,210.824"/>
	<path style="fill:#FF8080;" d="M451.765,210.824h-30.118c-8.312,0-15.059,6.746-15.059,15.059s6.746,15.059,15.059,15.059h30.118
		c8.312,0,15.059-6.746,15.059-15.059S460.077,210.824,451.765,210.824"/>
	<path style="fill:#FF8080;" d="M379.362,66.153l-21.293,21.293c-5.888,5.888-5.888,15.42,0,21.293
		c5.873,5.888,15.42,5.888,21.293,0l21.293-21.293c5.888-5.888,5.888-15.42,0-21.293C394.782,60.28,385.25,60.28,379.362,66.153"/>
	<path style="fill:#FF8080;" d="M81.212,87.462l21.293,21.293c5.888,5.888,15.42,5.888,21.293,0c5.888-5.888,5.888-15.42,0-21.293
		L102.52,66.153c-5.888-5.888-15.42-5.888-21.293,0C75.339,72.041,75.339,81.574,81.212,87.462"/>
	<path style="fill:#FF8080;" d="M240.941,105.412c-66.44,0-120.471,54.031-120.471,120.471v180.706h240.941V225.882
		C361.412,159.443,307.381,105.412,240.941,105.412z M301.176,240.941c-8.328,0-15.059-6.731-15.059-15.059
		c0-24.907-20.269-45.176-45.176-45.176c-8.328,0-15.059-6.731-15.059-15.059c0-8.328,6.731-15.059,15.059-15.059
		c41.532,0,75.294,33.762,75.294,75.294C316.235,234.21,309.504,240.941,301.176,240.941z"/>
</g>
<path style="fill:#4D4D4D;" d="M391.529,391.529h-15.059V225.882C376.44,151.1,315.723,90.383,240.941,90.353
	c-74.782,0.03-135.499,60.747-135.529,135.529v165.647H90.353c-24.952,0.015-45.161,20.224-45.176,45.176v30.118
	c0,3.96,1.611,7.846,4.412,10.647c2.801,2.801,6.686,4.412,10.647,4.412h361.412c3.96,0,7.846-1.611,10.647-4.412
	c2.801-2.801,4.412-6.686,4.412-10.647v-30.118C436.691,411.753,416.482,391.544,391.529,391.529z M135.529,225.882
	c0-29.094,11.791-55.356,30.916-74.496c19.14-19.125,45.402-30.916,74.496-30.916s55.356,11.791,74.496,30.916
	c19.125,19.14,30.916,45.402,30.916,74.496v165.647H135.529V225.882z M406.588,451.765H75.294v-15.059
	c0.015-8.312,6.746-15.059,15.059-15.059h15.059h15.059h256h15.059c8.312,0,15.044,6.746,15.059,15.059V451.765z"/>
<g>
</g>
<g>
</g>
<g>
</g>
<g>
</g>
<g>
</g>
<g>
</g>
<g>
</g>
<g>
</g>
<g>
</g>
<g>
</g>
<g>
</g>
<g>
</g>
<g>
</g>
<g>
</g>
<g>
</g>
</svg>
