<svg id="Flat" height="512" viewBox="0 0 64 64" width="512" xmlns="http://www.w3.org/2000/svg"><path d="m50 27a17.75 17.75 0 0 0 -18-17 17.76 17.76 0 0 0 -18 17.5 17.17 17.17 0 0 0 5 12.08l-4 21.42h22v-7h1a12 12 0 0 0 12-12v-1h6z" fill="#f9e109"/><path d="m48 47c-11.6 0-21-11.86-21-26.5a32.36 32.36 0 0 1 1.61-10.18 17.63 17.63 0 0 0 -14.61 17.18 17.17 17.17 0 0 0 5 12.08l-4 21.42h22v-7h1a12 12 0 0 0 10.91-7c-.3 0-.6 0-.91 0z" fill="#fcbc04"/><path d="m18.83 40.49-1.37 7.35a20.74 20.74 0 0 0 19.3 13.16h.24v-7.11a22 22 0 0 1 -18.17-13.4z" fill="#e59730"/><path d="m45 14a7 7 0 0 0 -10.39-6.12 14 14 0 0 0 -18.56-2.4 9.89 9.89 0 0 0 -3.05-.48 10 10 0 0 0 -.5 20 14 14 0 0 0 18.62 4 6.38 6.38 0 0 0 3.38 1 6.5 6.5 0 0 0 6.5-6.5 6.42 6.42 0 0 0 -.69-2.9 7 7 0 0 0 4.69-6.6z" fill="#57b7eb"/><path d="m35.5 26a6.38 6.38 0 0 1 -3.38-1 14 14 0 0 1 -18.62-4 10 10 0 0 1 -9.5-10c0-.13 0-.25 0-.38a10 10 0 0 0 8.5 14.38 14 14 0 0 0 18.62 4 6.38 6.38 0 0 0 3.38 1 6.5 6.5 0 0 0 6.5-6.5c0-.17 0-.33 0-.5a6.5 6.5 0 0 1 -5.5 3z" fill="#4891d3"/><circle cx="26" cy="38" fill="#57b7eb" r="3"/><circle cx="32" cy="45" fill="#57b7eb" r="2"/><path d="m59 12a4 4 0 1 0 -6 3.45v2.55h4v-2.55a4 4 0 0 0 2-3.45z" fill="#f9e109"/><path d="m53 18h4a0 0 0 0 1 0 0v2a2 2 0 0 1 -2 2 2 2 0 0 1 -2-2v-2a0 0 0 0 1 0 0z" fill="#4891d3"/><path d="m57.5 14a4.49 4.49 0 0 1 -4.5-4.5 4.73 4.73 0 0 1 .12-1 4 4 0 0 0 -.12 7v2.5h4v-2.55a4.05 4.05 0 0 0 1.52-1.58 4.32 4.32 0 0 1 -1.02.13z" fill="#fcbc04"/><path d="m54 18h3a0 0 0 0 1 0 0v2a0 0 0 0 1 0 0h-1a2 2 0 0 1 -2-2 0 0 0 0 1 0 0z" fill="#57b7eb"/><path d="m12 43a4 4 0 1 0 -6 3.45v2.55h4v-2.55a4 4 0 0 0 2-3.45z" fill="#f9e109"/><path d="m6 49h4a0 0 0 0 1 0 0v2a2 2 0 0 1 -2 2 2 2 0 0 1 -2-2v-2a0 0 0 0 1 0 0z" fill="#4891d3"/><path d="m10.5 45a4.49 4.49 0 0 1 -4.5-4.5 4.73 4.73 0 0 1 .12-1 4 4 0 0 0 -.12 7v2.5h4v-2.55a4.05 4.05 0 0 0 1.52-1.58 4.32 4.32 0 0 1 -1.02.13z" fill="#fcbc04"/><path d="m7 49h3a0 0 0 0 1 0 0v2a0 0 0 0 1 0 0h-1a2 2 0 0 1 -2-2 0 0 0 0 1 0 0z" fill="#57b7eb"/><path d="m24 37a2.93 2.93 0 0 1 .45-1.55 3 3 0 0 0 -1.45 2.55 3 3 0 0 0 3 3 3 3 0 0 0 2.55-1.45 2.93 2.93 0 0 1 -1.55.45 3 3 0 0 1 -3-3z" fill="#4891d3"/><path d="m31 44a2 2 0 0 1 .18-.82 2 2 0 1 0 2.64 2.64 2 2 0 0 1 -.82.18 2 2 0 0 1 -2-2z" fill="#4891d3"/><path d="m28 21a3 3 0 1 0 3 3 3 3 0 0 0 -3-3zm0 4a1 1 0 1 1 1-1 1 1 0 0 1 -1 1z" fill="#c4f236"/><path d="m15.71 21.71a1 1 0 0 0 0-1.42l-1.3-1.29 1.3-1.29a1 1 0 0 0 -1.42-1.42l-1.29 1.3-1.29-1.3a1 1 0 0 0 -1.42 1.42l1.3 1.29-1.3 1.29a1 1 0 0 0 0 1.42 1 1 0 0 0 1.42 0l1.29-1.3 1.29 1.3a1 1 0 0 0 1.42 0z" fill="#fcbc04"/><path d="m28.14 13.51a1 1 0 0 0 .86.49 1 1 0 0 0 .51-.14 1 1 0 0 0 .35-1.37l-3-5a1 1 0 0 0 -1.72 0l-3 5a1 1 0 1 0 1.72 1l1-1.73a14.18 14.18 0 0 1 -8.31 11.31 1 1 0 0 0 .45 1.93 1 1 0 0 0 .41-.09 16.15 16.15 0 0 0 9.53-13.4z" fill="#fcbc04"/><path d="m36.71 12.29a1 1 0 0 0 -1.42 0l-1.29 1.3-1.29-1.3a1 1 0 0 0 -1.42 1.42l1.3 1.29-1.3 1.29a1 1 0 0 0 0 1.42 1 1 0 0 0 1.42 0l1.29-1.3 1.29 1.3a1 1 0 0 0 1.42 0 1 1 0 0 0 0-1.42l-1.3-1.29 1.3-1.29a1 1 0 0 0 0-1.42z" fill="#fcbc04"/><path d="m16 14a3 3 0 1 0 -3-3 3 3 0 0 0 3 3zm0-4a1 1 0 1 1 -1 1 1 1 0 0 1 1-1z" fill="#c4f236"/><path d="m10 48h-4a1 1 0 0 0 0 2h4a1 1 0 0 0 0-2z" fill="#c4f236"/><path d="m57 17h-4a1 1 0 0 0 0 2h4a1 1 0 0 0 0-2z" fill="#c4f236"/><g fill="#fcbc04"><circle cx="55" cy="4" r="1"/><circle cx="60" cy="6" r="1"/><circle cx="50" cy="6" r="1"/><circle cx="8" cy="34" r="1"/><circle cx="13" cy="36" r="1"/><circle cx="3" cy="36" r="1"/><circle cx="16" cy="42" r="1"/></g><path d="m30.25 26a14 14 0 0 1 -3.17.88 2.82 2.82 0 0 0 .92.12 3 3 0 0 0 2.25-1z" fill="#a1d51c"/><path d="m10.29 21.71a1 1 0 0 0 1.42 0l.82-.83a9.86 9.86 0 0 1 -2.22-.61 1 1 0 0 0 -.02 1.44z" fill="#e59730"/><path d="m16.09 24.41a1 1 0 0 0 .91.59 1 1 0 0 0 .41-.09l.16-.08a13.66 13.66 0 0 1 -1.52-1.1 1 1 0 0 0 .04.68z" fill="#e59730"/></svg>