<svg height="512pt" viewBox="0 -2 512.00018 512" width="512pt" xmlns="http://www.w3.org/2000/svg"><path d="m359.585938 438.0625v66.167969c0 4.859375-6.613282 6.316406-8.660157 1.910156l-31.480469-68.078125zm0 0" fill="#aedb81"/><path d="m486.332031 362.722656-116.40625-88.160156h79.6875l49.433594 76.347656c5.363281 8.273438-4.851563 17.765625-12.714844 11.8125zm0 0" fill="#81b8fd"/><path d="m377.933594 447.160156h-237.207032c-7.273437 0-13.171874-5.898437-13.171874-13.171875v-157.46875c0-7.273437 5.898437-13.171875 13.171874-13.171875h237.207032c7.277344 0 13.175781 5.898438 13.175781 13.171875v157.46875c0 7.273438-5.898437 13.171875-13.175781 13.171875zm0 0" fill="#bee299"/><path d="m177.476562 447.164062h-36.742187c-7.285156 0-13.175781-5.898437-13.175781-13.175781v-157.472656c0-7.273437 5.890625-13.175781 13.175781-13.175781h36.742187c-7.285156 0-13.175781 5.902344-13.175781 13.175781v157.472656c0 7.277344 5.890625 13.175781 13.175781 13.175781zm0 0" fill="#aedb81"/><path d="m350.476562 335.414062h-182.289062c-4.347656 0-7.875-3.523437-7.875-7.875 0-4.347656 3.527344-7.871093 7.875-7.871093h182.289062c4.347657 0 7.875 3.523437 7.875 7.871093 0 4.351563-3.527343 7.875-7.875 7.875zm0 0" fill="#8ecb51"/><path d="m350.476562 390.839844h-31.125c-4.347656 0-7.875-3.523438-7.875-7.871094 0-4.351562 3.527344-7.875 7.875-7.875h31.125c4.347657 0 7.875 3.523438 7.875 7.875 0 4.347656-3.527343 7.871094-7.875 7.871094zm-62.617187 0h-119.671875c-4.347656 0-7.875-3.523438-7.875-7.871094 0-4.351562 3.527344-7.875 7.875-7.875h119.671875c4.347656 0 7.871094 3.523438 7.871094 7.875 0 4.347656-3.523438 7.871094-7.871094 7.871094zm0 0" fill="#8ecb51"/><path d="m512 44.699219v200.628906c0 24.679687-20.019531 44.699219-44.699219 44.699219h-231.492187c-24.6875 0-44.699219-20.019532-44.699219-44.699219v-200.628906c0-6.445313 1.367187-12.578125 3.824219-18.109375 6.949218-15.660156 22.632812-26.589844 40.875-26.589844h231.492187c24.679688 0 44.699219 20.019531 44.699219 44.699219zm0 0" fill="#a0cafe"/><path d="m368.394531 54.257812c0 12.574219-10.195312 22.765626-22.769531 22.765626s-22.765625-10.191407-22.765625-22.765626c0-12.574218 10.191406-22.769531 22.765625-22.769531s22.769531 10.195313 22.769531 22.769531zm0 0" fill="#fff5f4"/><path d="m384.488281 224.792969h-6.34375c-1.75 0-3.167969-1.417969-3.167969-3.167969 0 9.976562 0-100.34375 0-116.941406 0-2.097656-1.699218-3.796875-3.796874-3.796875h-49.046876c-3.65625 0-6.621093 2.964843-6.621093 6.621093v18.375c0 3.65625 2.964843 6.621094 6.621093 6.621094 3.3125 0 5.992188 2.683594 5.992188 5.992188v80.304687c0 3.3125-2.683594 5.992188-5.992188 5.992188h-3.515624c-3.65625 0-6.621094 2.964843-6.621094 6.621093v20.503907c0 3.660156 2.964844 6.625 6.621094 6.625h65.871093c3.65625 0 6.621094-2.964844 6.621094-6.625v-20.503907c0-3.65625-2.964844-6.621093-6.621094-6.621093zm0 0" fill="#fff5f4"/><path d="m255.441406 51.4375v238.589844h-19.632812c-24.6875 0-44.699219-20.019532-44.699219-44.699219v-200.628906c0-6.445313 1.367187-12.578125 3.824219-18.109375h35.660156c13.71875 0 24.847656 11.128906 24.847656 24.847656zm0 0" fill="#81b8fd"/><path d="m255.441406 51.4375v238.589844h-19.632812c-24.6875 0-44.699219-20.019532-44.699219-44.699219v-200.628906c0-6.445313 1.367187-12.578125 3.824219-18.109375h35.660156c13.71875 0 24.847656 11.128906 24.847656 24.847656zm0 0" fill="#81b8fd"/><path d="m49.792969 345.683594-48.300781 74.605468c-5.363282 8.273438 4.851562 17.761719 12.714843 11.8125l114.097657-86.417968zm0 0" fill="#ff7c48"/><path d="m192.214844 359.6875h-147.125c-13.722656 0-24.847656-11.125-24.847656-24.847656v-283.40625c0-13.722656 11.125-24.84375 24.847656-24.84375h147.125c13.722656 0 24.847656 11.125 24.847656 24.84375v283.40625c0 13.722656-11.125 24.847656-24.847656 24.847656zm0 0" fill="#ffad8c"/><path d="m81.832031 359.6875h-36.742187c-13.71875 0-24.847656-11.125-24.847656-24.847656v-283.402344c0-13.71875 11.128906-24.847656 24.847656-24.847656h36.742187c-13.71875 0-24.847656 11.128906-24.847656 24.847656v283.402344c0 13.722656 11.128906 24.847656 24.847656 24.847656zm0 0" fill="#ff7c48"/><g fill="#fff5f4"><path d="m78.402344 122.058594c-23.027344 0-33.601563 13.644531-33.601563 22.855468 0 6.652344 5.628907 9.71875 10.234375 9.71875 9.210938 0 5.457032-13.132812 22.855469-13.132812 8.527344 0 15.351563 3.753906 15.351563 11.597656 0 9.210938-9.554688 14.5-15.179688 19.273438-4.949219 4.265625-11.429688 11.257812-11.429688 25.925781 0 8.871094 2.386719 11.429687 9.382813 11.429687 8.355469 0 10.0625-3.753906 10.0625-6.996093 0-8.867188.167969-13.984375 9.550781-21.320313 4.605469-3.578125 19.101563-15.179687 19.101563-31.210937s-14.496094-28.140625-36.328125-28.140625zm0 0"/><path d="m76.183594 221.492188c-7.164063 0-12.960938 5.972656-12.960938 13.132812 0 6.996094 5.628906 13.136719 12.960938 13.136719 7.335937 0 13.132812-6.140625 13.132812-13.136719 0-7.160156-5.96875-13.132812-13.132812-13.132812zm0 0"/><path d="m155.664062 122.058594c-23.023437 0-33.597656 13.644531-33.597656 22.855468 0 6.652344 5.628906 9.71875 10.230469 9.71875 9.210937 0 5.460937-13.132812 22.855469-13.132812 8.527344 0 15.351562 3.753906 15.351562 11.597656 0 9.210938-9.550781 14.5-15.179687 19.273438-4.945313 4.265625-11.429688 11.257812-11.429688 25.925781 0 8.871094 2.390625 11.429687 9.382813 11.429687 8.355468 0 10.0625-3.753906 10.0625-6.996093 0-8.867188.171875-13.984375 9.550781-21.320313 4.605469-3.578125 19.101563-15.179687 19.101563-31.210937s-14.496094-28.140625-36.328126-28.140625zm0 0"/><path d="m153.445312 221.492188c-7.160156 0-12.960937 5.972656-12.960937 13.132812 0 6.996094 5.628906 13.136719 12.960937 13.136719 7.335938 0 13.136719-6.140625 13.136719-13.136719 0-7.160156-5.972656-13.132812-13.136719-13.132812zm0 0"/></g></svg>