<?xml version="1.0" encoding="iso-8859-1"?>
<!-- Generator: Adobe Illustrator 19.0.0, SVG Export Plug-In . SVG Version: 6.00 Build 0)  -->
<svg version="1.1" id="Capa_1" xmlns="http://www.w3.org/2000/svg" xmlns:xlink="http://www.w3.org/1999/xlink" x="0px" y="0px"
	 viewBox="0 0 469.333 469.333" style="enable-background:new 0 0 469.333 469.333;" xml:space="preserve">
<path style="fill:#303C42;" d="M426.667,0h-384C19.135,0,0,19.135,0,42.667v384c0,23.531,19.135,42.667,42.667,42.667h384
	c23.531,0,42.667-19.135,42.667-42.667v-384C469.333,19.135,450.198,0,426.667,0z"/>
<path style="fill:#FFD54F;" d="M448,426.667c0,11.76-9.573,21.333-21.333,21.333h-384c-11.76,0-21.333-9.573-21.333-21.333v-384
	c0-11.76,9.573-21.333,21.333-21.333h384c11.76,0,21.333,9.573,21.333,21.333V426.667z"/>
<path style="fill:#303C42;" d="M234.667,85.333c-47.052,0-85.333,38.281-85.333,85.333v10.667c0,5.896,4.771,10.667,10.667,10.667
	h42.667c5.896,0,10.667-4.771,10.667-10.667v-10.667c0-11.76,9.573-21.333,21.333-21.333S256,158.906,256,170.667v24.615
	c0,4.281-2.573,8.083-6.542,9.667c-28.427,11.365-46.792,38.49-46.792,69.104V288c0,5.896,4.771,10.667,10.667,10.667H256
	c5.896,0,10.667-4.771,10.667-10.667v-13.948c0-4.281,2.573-8.083,6.542-9.667C301.635,253.021,320,225.896,320,195.281v-24.615
	C320,123.615,281.719,85.333,234.667,85.333z"/>
<path style="fill:#FFF176;" d="M298.667,195.281c0,21.833-13.104,41.188-33.375,49.292c-12.125,4.844-19.958,16.417-19.958,29.479
	v3.281H224v-3.281c0-21.833,13.104-41.188,33.375-49.292c12.125-4.844,19.958-16.417,19.958-29.479v-24.615
	c0-23.531-19.135-42.667-42.667-42.667S192,147.135,192,170.667h-21.333c0-35.292,28.708-64,64-64s64,28.708,64,64V195.281z"/>
<path style="fill:#303C42;" d="M256,320h-42.667c-5.896,0-10.667,4.771-10.667,10.667v42.667c0,5.896,4.771,10.667,10.667,10.667
	H256c5.896,0,10.667-4.771,10.667-10.667v-42.667C266.667,324.771,261.896,320,256,320z"/>
<rect x="224" y="341.333" style="fill:#FFF176;" width="21.333" height="21.333"/>
<g>
	<circle style="fill:#303C42;" cx="64" cy="64" r="21.333"/>
	<circle style="fill:#303C42;" cx="405.333" cy="64" r="21.333"/>
</g>
<linearGradient id="SVGID_1_" gradientUnits="userSpaceOnUse" x1="-58.9173" y1="616.2624" x2="-46.214" y2="603.5601" gradientTransform="matrix(21.3333 0 0 -21.3333 1430.1112 13315.2227)">
	<stop  offset="0" style="stop-color:#000000;stop-opacity:0.1"/>
	<stop  offset="1" style="stop-color:#000000;stop-opacity:0"/>
</linearGradient>
<path style="fill:url(#SVGID_1_);" d="M290.975,106.667l-0.272,0.161c0.805,0.707,1.699,1.309,2.478,2.044L290.975,106.667z
	 M296.461,112.152C310.954,127.454,320,147.978,320,170.667v24.615c0,30.615-18.365,57.74-46.792,69.104
	c-3.969,1.583-6.542,5.385-6.542,9.667V288c0,5.896-4.771,10.667-10.667,10.667h-42.667c-2.194,0-4.116-0.82-5.811-1.954L230.81,320
	H256c5.896,0,10.667,4.771,10.667,10.667v42.667c0,5.896-4.771,10.667-10.667,10.667h-42.667c-2.108,0-3.958-0.767-5.612-1.82
	l65.82,65.82h153.125c11.76,0,21.333-9.573,21.333-21.333V263.691L296.461,112.152z M249.458,204.948
	c3.969-1.583,6.542-5.385,6.542-9.667v-24.615c0-11.76-9.573-21.333-21.333-21.333s-21.333,9.573-21.333,21.333v10.667
	c0,5.896-4.771,10.667-10.667,10.667H160c-2.905,0-5.522-1.174-7.444-3.055l56.116,56.117
	C216.227,227.145,230.531,212.514,249.458,204.948z"/>
<g>
	<circle style="fill:#303C42;" cx="64" cy="405.333" r="21.333"/>
	<circle style="fill:#303C42;" cx="405.333" cy="405.333" r="21.333"/>
</g>
<linearGradient id="SVGID_2_" gradientUnits="userSpaceOnUse" x1="-68.6888" y1="619.0512" x2="-43.3842" y2="607.2509" gradientTransform="matrix(21.3333 0 0 -21.3333 1430.1112 13315.2227)">
	<stop  offset="0" style="stop-color:#FFFFFF;stop-opacity:0.2"/>
	<stop  offset="1" style="stop-color:#FFFFFF;stop-opacity:0"/>
</linearGradient>
<path style="fill:url(#SVGID_2_);" d="M426.667,0h-384C19.135,0,0,19.135,0,42.667v384c0,23.531,19.135,42.667,42.667,42.667h384
	c23.531,0,42.667-19.135,42.667-42.667v-384C469.333,19.135,450.198,0,426.667,0z"/>
<g>
</g>
<g>
</g>
<g>
</g>
<g>
</g>
<g>
</g>
<g>
</g>
<g>
</g>
<g>
</g>
<g>
</g>
<g>
</g>
<g>
</g>
<g>
</g>
<g>
</g>
<g>
</g>
<g>
</g>
</svg>
