<?xml version="1.0" encoding="utf-8"?>
<!-- Generator: Adobe Illustrator 23.0.0, SVG Export Plug-In . SVG Version: 6.00 Build 0)  -->
<svg version="1.1" id="图层_1" xmlns="http://www.w3.org/2000/svg" xmlns:xlink="http://www.w3.org/1999/xlink" x="0px" y="0px"
	 viewBox="0 0 500 500" style="enable-background:new 0 0 500 500;" xml:space="preserve">
<style type="text/css">
	.st0{fill:#3FA9F5;}
	.st1{fill:#F2F2F2;}
	.st2{opacity:0.99;fill:#F2F2F2;}
</style>
<g>
	<path class="st0" d="M365,500H135c-19.33,0-35-15.67-35-35V35c0-19.33,15.67-35,35-35h230c19.33,0,35,15.67,35,35v430
		C400,484.33,384.33,500,365,500z"/>
</g>
<path class="st1" d="M339,26H161c-3.31,0-6-2.69-6-6v0c0-3.31,2.69-6,6-6h178c3.31,0,6,2.69,6,6v0C345,23.31,342.31,26,339,26z"/>
<g>
	<path class="st2" d="M163.55,442.08l4.46-1.2c0.99,6.53,4.91,9.74,11.76,9.65c6.21-0.16,9.5-2.61,9.89-7.34
		c0.38-3.39-2.8-5.84-9.55-7.34c-0.19-0.03-0.51-0.11-0.96-0.24c-0.67-0.19-1.17-0.32-1.49-0.38c-8.83-1.63-13.06-5.04-12.67-10.22
		c0.48-6.46,4.98-9.84,13.49-10.13c8.51,0,13.46,3.41,14.83,10.22l-4.56,1.1c-0.93-5.06-4.26-7.62-9.98-7.68
		c-5.63,0.22-8.71,2.38-9.22,6.48c-0.38,3.17,3.02,5.42,10.22,6.77c0.38,0.06,1.04,0.24,1.97,0.53c0.45,0.1,0.77,0.18,0.96,0.24
		c8.06,1.95,11.94,5.52,11.62,10.7c-0.51,7.01-5.28,10.67-14.3,10.99C170.67,454.41,165.19,450.36,163.55,442.08z"/>
	<path class="st2" d="M227.34,415.29l15.89,38.3h-4.8l-4.56-11.47h-17.9l-4.56,11.47h-4.7l15.7-38.3H227.34z M224.99,419.32h-0.14
		l-7.58,19.25h15.41L224.99,419.32z"/>
	<path class="st2" d="M281.78,453.64h-25.01v-38.26h4.37v34.56h20.64V453.64z"/>
	<path class="st2" d="M326.22,453.6h-28.7v-38.26h27.79v3.7h-23.38v12.91h22.03v3.65h-22.03v14.3h24.29V453.6z"/>
</g>
<rect x="202.5" y="119" class="st1" width="95" height="95"/>
<rect x="145" y="224" class="st1" width="95" height="95"/>
<rect x="260" y="224" class="st1" width="95" height="95"/>
</svg>
