<?xml version="1.0" encoding="iso-8859-1"?>
<!-- Generator: Adobe Illustrator 19.0.0, SVG Export Plug-In . SVG Version: 6.00 Build 0)  -->
<svg version="1.1" id="Layer_1" xmlns="http://www.w3.org/2000/svg" xmlns:xlink="http://www.w3.org/1999/xlink" x="0px" y="0px"
	 viewBox="0 0 512 512" style="enable-background:new 0 0 512 512;" xml:space="preserve">
<polyline style="fill:#8DE0A8;" points="512,76.938 512,39.233 0,39.233 0,319.047 512,319.047 512,114.644 "/>
<g>
	<rect y="319.053" style="fill:#81CC96;" width="511.999" height="153.713"/>
	<path style="fill:#81CC96;" d="M193.485,78.923H87.322c0,26.302-21.328,47.63-47.63,47.63v105.17
		c26.302,0,47.63,21.328,47.63,47.63h106.163h125.029h106.163c0-26.303,21.328-47.63,47.63-47.63v-105.17
		c-26.302,0-47.63-21.328-47.63-47.63H318.514"/>
</g>
<rect x="193.485" y="39.233" style="fill:#FCD577;" width="125.029" height="433.528"/>
<g>
	<rect y="329.783" style="fill:#8DE0A8;" width="511.999" height="13.231"/>
	<rect y="448.197" style="fill:#8DE0A8;" width="511.999" height="13.231"/>
	<rect y="353.466" style="fill:#8DE0A8;" width="511.999" height="13.231"/>
	<rect y="400.832" style="fill:#8DE0A8;" width="511.999" height="13.231"/>
	<rect y="424.514" style="fill:#8DE0A8;" width="511.999" height="13.231"/>
	<rect y="377.149" style="fill:#8DE0A8;" width="511.999" height="13.231"/>
</g>
<rect x="193.485" y="319.053" style="fill:#EAC36E;" width="125.029" height="153.713"/>
<g>
</g>
<g>
</g>
<g>
</g>
<g>
</g>
<g>
</g>
<g>
</g>
<g>
</g>
<g>
</g>
<g>
</g>
<g>
</g>
<g>
</g>
<g>
</g>
<g>
</g>
<g>
</g>
<g>
</g>
</svg>
