<svg height="512" viewBox="0 0 59 44" width="512" xmlns="http://www.w3.org/2000/svg"><g id="016---Money-Stack" fill="none"><path id="Shape" d="m58 42.14c0-.1 0 .71 0-13.65 0-.56 1.22 2.34-5.5-26.49-.1168334-.4699687-.5178377-.81483242-1-.86h-6.34c0-.55228475-.4477153-1-1-1h-4c-.5522847 0-1 .44771525-1 1h-20.34c0-.55228475-.4477153-1-1-1h-4c-.4953928-.00637602-.9207716.3509422-1 .84v.16h-6.26c-.48093647.0480399-.88051018.39167329-1 .86l-5.56 26.14v14.18c.01223684.2014442.10732256.3888345.26267167.5176606s.35709894.1875921.55732833.1623394h8.18c0 .5522847.44771525 1 1 1h4c.5522847 0 1-.4477153 1-1h28c0 .5522847.4477153 1 1 1h4c.5522847 0 1-.4477153 1-1h8.21c.6 0 .91-.44.79-.86z" fill="#71c285"/><path id="Shape" d="m45.16 15.62c0 4.48-3.95 7.78-8.15 9.38h-16.01c-9.38-3.58-11-12.24-3.11-17.2 10.11-6.48 27.27-1.65 27.27 7.82z" fill="#4fba6f"/><path id="Shape" d="m39.76 5.28h-21.52l.57-4c0-.24-1.6-.16 20.37-.16 0 .16-.05-.21.58 4.16z" fill="#71c285"/><path id="Rectangle-path" d="m15 29h28v14h-28z" fill="#4c8056"/><path id="Shape" d="m58 42.1c.0399194.1269355.0399194.2630645 0 .39z" fill="#4c8056"/><path id="Shape" d="m12.24 5.29-2.8 19.62h-.82l-3.16-2.91 2.19-14 4-2.72z" fill="#24ae5f"/><path id="Shape" d="m9 29v14h-8.18c-.20022939.0252527-.40197922-.0335133-.55732833-.1623394-.15534911-.1288261-.25043483-.3162164-.26267167-.5176606v-14c.01223684.2014442.10732256.3888345.26267167.5176606s.35709894.1875921.55732833.1623394z" fill="#4c8056"/><path id="Shape" d="m58 28.49v14c-.1139385.3320548-.4404826.5428617-.79.51h-8.21v-14h8.21c.3495174.0328617.6760615-.1779452.79-.51z" fill="#4c8056"/><path id="Shape" d="m18.82 1.14c0 .11.26-1.72-3.82 26.86h-6c4.76-33.45 3.7-25.88 3.86-27 .0792284-.4890578.5046072-.84637602 1-.84h4c.5289491.0210771.9498324.4507288.96.98z" fill="#f0c419"/><path id="Shape" d="m15 28v15c0 .5522847-.4477153 1-1 1h-4c-.55228475 0-1-.4477153-1-1v-15z" fill="#f29c1f"/><path id="Shape" d="m52.72 22-3.18 2.91h-.98l-2.81-19.63h.69l4.08 2.72z" fill="#24ae5f"/><path id="Shape" d="m49 28h-6c-4-28.14-3.82-26.75-3.82-26.86 0-.55228475.4477153-1 1-1h4c.4953928-.00637602.9207716.3509422 1 .84.55 4.09-1.37-9.41 3.82 27.02z" fill="#f0c419"/><path id="Shape" d="m42.57 25c-.11 0 .84 0-13.55 0v-.27c8.53 0 12.77-5.29 11.87-10.37h.16c1.3 9.06.95 6.69 1.52 10.64z" fill="#24ae5f"/><path id="Shape" d="m29 24.73v.27h-13.5c-.11 0-.2.91 1.45-10.66h.16c-.88 5.01 3.21 10.39 11.89 10.39z" fill="#24ae5f"/><path id="Shape" d="m49 28v15c0 .5522847-.4477153 1-1 1h-4c-.5522847 0-1-.4477153-1-1v-15z" fill="#f29c1f"/><g fill="#71c285"><path id="Shape" d="m6 36c0 .5522847-.44771525 1-1 1h-5v-2h5c.55228475 0 1 .4477153 1 1z"/><path id="Shape" d="m39 37h-20c-.5522847 0-1-.4477153-1-1s.4477153-1 1-1h20c.5522847 0 1 .4477153 1 1s-.4477153 1-1 1z"/><path id="Shape" d="m58 35v2h-5c-.5522847 0-1-.4477153-1-1s.4477153-1 1-1z"/></g><path id="Shape" d="m29 5.28c-5.87.06-11 3.64-11.87 9.08h-.16l1.29-9.06z" fill="#24ae5f"/><path id="Shape" d="m41.05 14.34h-.16c-.82-5.44-6-9-11.87-9.08h10.74z" fill="#24ae5f"/><path id="Shape" d="m29.08 13.91c-.5441536.0217838-1.07366-.1792735-1.4662181-.5567332s-.6142178-.8986775-.6137819-1.4432668c.0363367-1.13336.94664-2.04366329 2.08-2.08.5543191-.00801385 1.0891124.2045325 1.4867021.5908697.3975897.3863371.6253983.9148095.6332979 1.4691303 0 .5522847.4477153 1 1 1s1-.4477153 1-1c-.0222323-1.90129731-1.3457356-3.5391327-3.2-3.96v-2.65c0-.55228475-.4477153-1-1-1s-1 .44771525-1 1v2.72c-3.77 1.09-4.09 6.47-.24 7.7.4266244.1522227.877082.2267345 1.33.22 1.181424-.0229153 2.1660183.8995874 2.22 2.08-.0302385.5756745-.2936039 1.1142124-.7294213 1.4915434-.4358173.3773311-1.0065024.5609148-1.5805787.5084566-.5558426.029872-1.100292-.1653802-1.5104687-.5416891s-.6515097-.901958-.6695313-1.4583109c0-.5522847-.4477153-1-1-1s-1 .4477153-1 1c.0258076 1.8723998 1.3471549 3.4762994 3.18 3.86v2.87c0 .5522847.4477153 1 1 1s1-.4477153 1-1v-2.84c1.9403034-.3345095 3.3486237-2.031281 3.32-4-.1076755-2.2535076-1.9841923-4.0149549-4.24-3.98z" fill="#4c8056"/></g></svg>